# xmcd
#
# Track frame offsets: 
#        150
#        18332
#        33592
#        51070
#        65613
#        78548
#        91783
#        105675
#        120033
#        137212
#
# Disc length: 2091 seconds
#
# Revision: 0
# Processed by: cddbd v1.5.2PL0 Copyright (c) Steve Scherf et al.
# Submitted via: ExactAudioCopy v0.95b4
#
DISCID=7908290a
DTITLE=Danelle Leverett - Glimpse of Life
DYEAR=2004
DGENRE=Country
TTITLE0=Out of Control
TTITLE1=Expert Liar
TTITLE2=Anywhere I Could Go
TTITLE3=Be The One
TTITLE4=Looking Around
TTITLE5=I Need You
TTITLE6=No Tomorrow - Live Acoustic
TTITLE7=Don't Have To
TTITLE8=Only You
TTITLE9=Through Love
EXTD=
EXTT0=
EXTT1=
EXTT2=
EXTT3=
EXTT4=
EXTT5=
EXTT6=
EXTT7=
EXTT8=
EXTT9=
PLAYORDER=
